<?xml version="1.0" encoding="utf-8"?>
<!-- Generator: Adobe Illustrator 25.0.0, SVG Export Plug-In . SVG Version: 6.00 Build 0)  -->
<svg version="1.1" id="Layer_1" xmlns="http://www.w3.org/2000/svg" xmlns:xlink="http://www.w3.org/1999/xlink" x="0px" y="0px"
	 viewBox="0 0 560 500" style="enable-background:new 0 0 560 500;" xml:space="preserve">
<style type="text/css">
	.st0{fill:url(#SVGID_1_);}
	.st1{fill:url(#SVGID_2_);}
	.st2{fill:url(#SVGID_3_);}
	.st3{fill:url(#SVGID_4_);}
	.st4{fill:url(#SVGID_5_);}
	.st5{opacity:0.45;fill:#793F97;}
	.st6{fill:url(#SVGID_6_);}
	.st7{opacity:0.45;fill:#077797;}
	.st8{fill:url(#SVGID_7_);}
	.st9{fill:#287EC1;}
	.st10{fill:url(#SVGID_8_);}
</style>
<radialGradient id="SVGID_1_" cx="80.7952" cy="174.1898" r="364.7141" gradientUnits="userSpaceOnUse">
	<stop  offset="0.251" style="stop-color:#C1BEDC"/>
	<stop  offset="0.399" style="stop-color:#BEBADB"/>
	<stop  offset="0.5431" style="stop-color:#B7B0D5"/>
	<stop  offset="0.6857" style="stop-color:#AB9FCC"/>
	<stop  offset="0.8274" style="stop-color:#9B8AC0"/>
	<stop  offset="0.9672" style="stop-color:#8972B3"/>
	<stop  offset="1" style="stop-color:#856CB0"/>
</radialGradient>
<path class="st0" d="M469.337,102.419c-0.466-3.884-1.15-7.964-2.124-12.137c-0.902-3.867-2.068-7.814-3.532-11.76
	c-3.342-9.011-8.288-18.013-15.593-26.034c-34.043-37.382-107.59-40.969-171.331,4.038c-19.075,12.188-66.557,38.587-126.339,31.183
	c-16.453-2.038-30.776-6.257-42.685-10.992c13.438,3.109,29.821,5.48,48.458,5.192c49.855-0.771,87.666-20.138,107.298-32.305
	C192.534,60.564,112.925-6.93,75.428,42.104C37.931,91.138,50.623,184.592,71.39,272.277c1.375,5.804,2.866,11.649,4.452,17.507
	c1.581,5.839,3.26,11.691,5.019,17.53c5.683,18.864,12.215,37.577,19.055,55.25c0.972,2.51,1.949,4.998,2.932,7.464
	c3.979,9.985,8.034,19.59,12.067,28.625c1.175,2.633,2.348,5.216,3.516,7.749c15.239,33.04,30.394,56.329,36.691,64.1
	c10.421,12.862,29.483,16.975,41.694,1.191c10.719-13.856,25.157-71.698,35.502-101.11c0.486-1.382,0.968-2.714,1.441-3.94
	c1.518-3.934,2.971-7.03,4.349-8.99c9.193-13.063,19.602-16.378,29.868-3.498c0.48,0.602,0.96,1.237,1.439,1.91
	c1.492,2.098,2.98,4.539,4.459,7.356c12.114,23.075,23.075,111.337,52.495,120.567c29.421,9.23,68.648-80.762,96.338-163.832
	c12.949-38.846,23.041-74.955,30.748-107.415c1.964-8.272,3.773-16.302,5.43-24.078c4.181-19.613,7.435-37.639,9.825-53.737
	c0.555-3.738,0.945-7.496,1.179-11.262c0.162-2.614,0.24-5.231,0.236-7.848C470.116,111.344,469.871,106.871,469.337,102.419z"/>
<g>
	<radialGradient id="SVGID_2_" cx="298.0848" cy="219.1524" r="174.8314" gradientUnits="userSpaceOnUse">
		<stop  offset="0.4839" style="stop-color:#C1BEDC;stop-opacity:0"/>
		<stop  offset="0.5735" style="stop-color:#B9B3D7;stop-opacity:0.1736"/>
		<stop  offset="0.7345" style="stop-color:#A699C9;stop-opacity:0.4855"/>
		<stop  offset="0.947" style="stop-color:#8C75B5;stop-opacity:0.8973"/>
		<stop  offset="1" style="stop-color:#856CB0"/>
	</radialGradient>
	<path class="st1" d="M453.455,212.742c0.565-2.38,1.089-4.696,1.629-7.036c-17.607-3.697-52.313,23.046-73.683,27.617
		c-3.316,0.709-98.687,58.413-101.26,60.621c-2.266,1.944-60.354-15.663-52.036-3.393c4.269,24.152,19.264,34.87,21.044,33.266
		c13.105-11.81,8.561,17.458,18.827,30.339c0.48,0.602,0.959,1.237,1.439,1.91c1.492,2.098,2.98,4.539,4.459,7.356
		c12.115,23.075,23.075,111.337,52.496,120.567c29.421,9.23,68.648-80.763,96.338-163.832
		C435.655,281.312,445.748,245.203,453.455,212.742z"/>
</g>
<linearGradient id="SVGID_3_" gradientUnits="userSpaceOnUse" x1="136.6137" y1="292.1085" x2="88.336" y2="428.8953">
	<stop  offset="0" style="stop-color:#C1BDDB;stop-opacity:0"/>
	<stop  offset="0.3694" style="stop-color:#99BADF;stop-opacity:0.4166"/>
	<stop  offset="0.8868" style="stop-color:#49B6E4"/>
</linearGradient>
<path class="st2" d="M202.556,307.185c-49.891-47.16-99.782-94.321-149.672-141.482c2.936,34.224,10.05,70.876,18.505,106.574
	c1.375,5.804,2.866,11.649,4.452,17.507c1.581,5.839,3.259,11.691,5.019,17.53c5.684,18.864,12.215,37.576,19.055,55.25
	c0.971,2.511,1.949,4.998,2.931,7.464c3.979,9.985,8.034,19.59,12.067,28.625c1.175,2.633,2.348,5.216,3.516,7.749
	c15.239,33.04,30.394,56.329,36.691,64.1c10.421,12.862,29.484,16.975,41.694,1.191c10.719-13.856,25.156-71.698,35.501-101.11
	c0.486-1.381,0.968-2.714,1.441-3.94c1.518-3.935,2.97-7.03,4.349-8.99c2.02-2.87,4.101-5.237,6.224-7.098
	C231.854,334.966,217.111,320.944,202.556,307.185z"/>
<linearGradient id="SVGID_4_" gradientUnits="userSpaceOnUse" x1="254.2493" y1="372.9632" x2="440.8528" y2="372.9632">
	<stop  offset="0" style="stop-color:#7A5DA6"/>
	<stop  offset="0.582" style="stop-color:#47B5E3"/>
	<stop  offset="1" style="stop-color:#60C6C6"/>
</linearGradient>
<path class="st3" d="M254.249,346.035c0,0,54.309-30.19,78.637,63.963s76.948-59.523,107.966-148.802
	c0,0-19.4,70.475-39.491,118.254c-23.48,55.837-50.094,105.366-70.051,105.281c-11.589-0.05-23.039-7.086-33.943-44.257
	C286.191,402.37,273.846,345.311,254.249,346.035z"/>
<linearGradient id="SVGID_5_" gradientUnits="userSpaceOnUse" x1="96.3526" y1="57.485" x2="263.489" y2="57.485">
	<stop  offset="0" style="stop-color:#7B60A8"/>
	<stop  offset="1" style="stop-color:#C3BCDB"/>
</linearGradient>
<path class="st4" d="M109.422,77.098c0,0-16.812-9.502-12.3-27.831c4.512-18.328,27.352-19.738,45.398-11.279
	s82.905,28.871,120.969,11.616c0,0-30.713,21.023-74.905,29.136S109.422,77.098,109.422,77.098z"/>
<path class="st5" d="M195.839,226.204c0,0-0.23-46.948,37.264-55.81c37.495-8.862,52.484,17.867,52.484,17.867l26.242-10.608
	c0,0-36.851-42.992-75.934-34.059c-39.084,8.933-61.663,58.626-62.936,61.418c-1.273,2.792,6.961,35.734,6.961,35.734
	L195.839,226.204z"/>
<linearGradient id="SVGID_6_" gradientUnits="userSpaceOnUse" x1="58.2733" y1="399.2125" x2="117.8602" y2="399.2125">
	<stop  offset="0" style="stop-color:#325697"/>
	<stop  offset="1" style="stop-color:#287EC1"/>
</linearGradient>
<path class="st6" d="M58.273,389.224c0,0,4.536,19.556,35.614,19.977l23.973-3.948l-4.55-10.126
	C113.311,395.127,64.694,406.173,58.273,389.224z"/>
<path class="st7" d="M209.699,269.555l-27.645,18.131c0,0-5.964-5.29-9.094-10.227l27.705-16.294
	C200.665,261.165,207.044,267.711,209.699,269.555z"/>
<path class="st5" d="M185.238,285.484c0,0,16.328,32.689,72.417,34.128c56.09,1.438,192.551-93.528,193.299-96.571
	c0.748-3.043,12.48-42.861,10.205-38.619c-2.275,4.242-153.168,107.145-190.561,109.303S185.238,285.484,185.238,285.484z"/>
<path class="st5" d="M335.129,182.837c-1.803-4.768-5.596-12.888-11.139-12.888c-4.622,0-6.189,13.555-5.568,18.65
	c0.969,7.938-6.318,11.801-12.575,14.758c-7.831,3.701-15.935,6.885-23.921,10.234c-17.106,7.173-34.247,14.311-50.909,22.48
	c-33.77,16.557-64.209,38.858-94.254,61.295c-15.901,11.875-31.557,24.076-47.026,36.509l6.476,18.566
	c0.644-0.359,1.272-0.76,1.86-1.237c30.544-24.737,61.921-48.629,94.445-70.714c15.875-10.779,36.848-22.666,54.117-31.046
	c17.063-8.28,46.227-24.136,65.192-33.186C328.667,208.223,342.98,203.598,335.129,182.837z"/>
<linearGradient id="SVGID_7_" gradientUnits="userSpaceOnUse" x1="197.3891" y1="276.3185" x2="501.0066" y2="138.0039">
	<stop  offset="0" style="stop-color:#325697"/>
	<stop  offset="1" style="stop-color:#287EC1"/>
</linearGradient>
<path class="st8" d="M536.36,99.006c-7.992-16.597-27.544-24.554-71.163-15.875c0.72,1.965,1.924,7.788,2.649,10.474
	c19.784-3.445,35.277-5.219,39.97,3.79c14.355,27.561-71.039,97.824-190.734,156.936c-16.061,7.932-31.922,15.258-47.384,21.933
	c-22.836,9.859-49.75,5.043-66.99-12.887c-0.596-0.619-1.473-1.565-2.045-2.212c0,0-1.963,1.113-11.323,6.504
	c-5.588,3.262-11.064,6.528-16.382,9.79c7.929,10.348,17.771,18.733,28.768,24.883c22.964,12.842,50.964,15.936,77.096,6.842
	c3.184-1.108,6.342-2.39,9.458-3.865c0.184-0.087,0.359-0.187,0.543-0.275c13.469-5.674,27.529-11.083,40.928-18.467
	C470.125,209.223,555.376,138.497,536.36,99.006z"/>
<path class="st9" d="M331.17,176.319c-2.264-4.783-2.795-6.08-5.685-10.242c-0.478-0.688-0.947-1.388-1.439-2.059
	c-7.404-10.078-16.585-18.37-26.877-24.659c-4.156-2.54-8.496-4.741-12.973-6.608c-24.514-10.226-53.175-10.157-78.89,2.81
	c-27.344,13.814-45.323,39.954-50.325,68.629c-0.865,4.958-1.32,9.992-1.391,15.051c-0.127,9.158,1.085,18.395,3.727,27.418
	C69.679,301.176,16.335,359.275,31.207,390.162c7.118,14.783,33.413,26.869,86.653,15.091l-4.55-10.126
	c0,0-43.345,9.769-53.56-3.354c-14.623-18.787,36.548-67.29,113.209-114.314c7.035-4.315,27.705-16.294,27.705-16.294
	l126.178-64.172C332.83,193.841,334.561,183.605,331.17,176.319z M185.963,229.37c-1.782-11.58-0.233-23.267,4.168-33.784
	c4.062-9.707,10.585-18.385,19.167-25.083c3.571-2.787,7.467-5.259,11.732-7.278c1.964-0.929,3.953-1.735,5.956-2.445
	c10.245-3.632,20.911-4.441,31.076-2.747c13.759,2.292,26.586,9.157,36.195,19.731c-18.427,7.337-37.332,15.624-56.441,24.825
	c-16.864,8.121-33.073,16.561-48.49,25.189L185.963,229.37z"/>
<g>
	<linearGradient id="SVGID_8_" gradientUnits="userSpaceOnUse" x1="152.7914" y1="203.6595" x2="231.4058" y2="178.2254">
		<stop  offset="0" style="stop-color:#325697"/>
		<stop  offset="1" style="stop-color:#287EC1"/>
	</linearGradient>
	<path class="st10" d="M326.842,196.993c5.987-3.152,7.719-13.387,4.328-20.674c-2.264-4.783-2.795-6.079-5.685-10.242
		c-0.478-0.688-0.947-1.388-1.439-2.059c-7.404-10.078-16.585-18.37-26.877-24.659c-4.156-2.54-8.496-4.741-12.973-6.608
		c-24.513-10.226-53.175-10.157-78.89,2.81c-27.344,13.814-45.323,39.954-50.325,68.629c-0.865,4.958-1.32,9.992-1.391,15.05
		c-0.127,9.158,1.085,18.395,3.727,27.418l28.645-17.287c-1.781-11.58-0.233-23.267,4.168-33.784
		c4.062-9.707,10.585-18.385,19.167-25.083c3.571-2.787,7.467-5.259,11.732-7.278c1.964-0.93,3.953-1.735,5.956-2.445
		c10.245-3.632,20.911-4.441,31.077-2.747c13.758,2.292,26.586,9.157,36.195,19.73c0,0-9.967,21.428-34.314,43.532L326.842,196.993z
		"/>
</g>
</svg>
