<?xml version="1.0" encoding="utf-8"?>
<!-- Generator: Adobe Illustrator 25.0.0, SVG Export Plug-In . SVG Version: 6.00 Build 0)  -->
<svg version="1.1" id="Layer_1" xmlns="http://www.w3.org/2000/svg" xmlns:xlink="http://www.w3.org/1999/xlink" x="0px" y="0px"
	 viewBox="0 0 560 250" style="enable-background:new 0 0 560 250;" xml:space="preserve">
<style type="text/css">
	.st0{fill:url(#SVGID_1_);}
	.st1{fill:url(#SVGID_2_);}
	.st2{fill:url(#SVGID_3_);}
	.st3{fill:url(#SVGID_4_);}
	.st4{fill:url(#SVGID_5_);}
</style>
<g>
	<linearGradient id="SVGID_1_" gradientUnits="userSpaceOnUse" x1="10.8162" y1="132.1822" x2="546.1784" y2="132.1822">
		<stop  offset="0" style="stop-color:#315696"/>
		<stop  offset="1" style="stop-color:#277EC0"/>
	</linearGradient>
	<path class="st0" d="M554.294,57.124c-3.452,0.332-6.956,0.504-10.501,0.504c-12.001,0-23.55-1.938-34.356-5.536
		c1.222,9.625,2.934,19.421,3.186,29.497c1.115,45.866,3.133,89.448,1.075,130.681h40.596c-0.81-24.904-1.248-50.565-1.261-76.917
		C553.033,108.539,553.471,82.44,554.294,57.124z"/>
	<linearGradient id="SVGID_2_" gradientUnits="userSpaceOnUse" x1="10.8162" y1="140.6802" x2="546.1784" y2="140.6802">
		<stop  offset="0" style="stop-color:#315696"/>
		<stop  offset="1" style="stop-color:#277EC0"/>
	</linearGradient>
	<path class="st1" d="M348.847,179.11c-3.372-1.606-4.859-5.058-4.859-9.04v-27.794l28.203,0.778
		c-0.753-5.195-1.281-11.277-1.215-18.069c0.056-5.861,0.544-11.165,1.215-15.797c-9.401,0.253-18.802,0.506-28.203,0.759V74.276
		c-0.916,0.027-1.845,0.04-2.761,0.04c-12.757,0-24.997-2.19-36.374-6.226v42.91c-3.846,0.104-7.692,0.207-11.538,0.31v29.569
		l11.538,0.318v49.264c0,12.054,9.77,21.811,21.824,21.811c0,0,16.581,2.894,28.781-1.168c12.187-4.062,19.209-8.496,19.209-8.496
		v-25.873l-17.59,3.04C355.073,180.119,350.679,179.986,348.847,179.11z"/>
	<linearGradient id="SVGID_3_" gradientUnits="userSpaceOnUse" x1="10.8162" y1="159.2956" x2="546.1784" y2="159.2956">
		<stop  offset="0" style="stop-color:#315696"/>
		<stop  offset="1" style="stop-color:#277EC0"/>
	</linearGradient>
	<path class="st2" d="M476.676,107.983c-4.765,0.501-9.262,0.718-13.442,0.739v5.944c-8.502-6.7-18.946-10.661-30.246-10.661
		c-28.511,0-51.625,25.144-51.625,56.161c0,31.017,23.113,56.161,51.625,56.161c11.3,0,21.745-3.961,30.246-10.661v6.612h40.597
		c-2.441-16.017-4.226-34.88-4.167-56.021c0.056-20.298,1.8-38.465,4.167-53.994C496.26,104.686,487.131,106.883,476.676,107.983z
		 M440.98,181.551c-12.288,0-22.248-9.961-22.248-22.248s9.961-22.248,22.248-22.248c12.287,0,22.248,9.961,22.248,22.248
		S453.267,181.551,440.98,181.551z"/>
	<g>
		<linearGradient id="SVGID_4_" gradientUnits="userSpaceOnUse" x1="10.8162" y1="140.2335" x2="546.1784" y2="140.2335">
			<stop  offset="0" style="stop-color:#315696"/>
			<stop  offset="1" style="stop-color:#277EC0"/>
		</linearGradient>
		<path class="st3" d="M145.528,131.734c-7.515,0-13.608,6.092-13.608,13.608c0,1.173,0.164,2.305,0.443,3.392l26.769-3.45
			C159.102,137.795,153.024,131.734,145.528,131.734z"/>
		<linearGradient id="SVGID_5_" gradientUnits="userSpaceOnUse" x1="10.8162" y1="134.5094" x2="546.1784" y2="134.5094">
			<stop  offset="0" style="stop-color:#315696"/>
			<stop  offset="1" style="stop-color:#277EC0"/>
		</linearGradient>
		<path class="st4" d="M251.426,102.264h-9.266v0.145c-3.692,0.452-9.14,1.553-15.128,4.465c-6.522,3.171-11.005,7.186-13.676,9.979
			c0.058-4.863,0.116-9.727,0.174-14.59c-7.572,2.422-16.7,4.619-27.155,5.719c-2.756,0.29-5.411,0.475-7.978,0.592
			c-8.573-6.027-19.014-9.576-30.29-9.576h-1.43c-8.708,0-16.915,2.123-24.154,5.86l0.035-52.58
			c-10.979,3.73-22.754,5.748-35.007,5.748c-1.912,0-3.81-0.053-5.695-0.146v57.187c-8.499-6.693-18.938-10.649-30.231-10.649
			C23.113,104.419,0,129.563,0,160.579c0,31.017,23.113,56.161,51.625,56.161c11.294,0,21.733-3.957,30.231-10.649v6.606h40.595
			l0.001-1.975c7.256,3.759,15.488,5.896,24.224,5.896h1.43c8.977,0,17.426-2.249,24.826-6.204v1.865h40.597v-64.21
			c0.492-1.908,2.14-7.224,7.218-10.886c3.171-2.286,7.004-3.44,10.979-3.462c5.749-0.032,10.433,4.619,10.433,10.369v68.19h40.597
			v-78.683C282.757,116.291,268.73,102.264,251.426,102.264z M81.856,159.894c-0.097,12.204-10.012,22.07-22.239,22.07
			c-12.287,0-22.248-9.961-22.248-22.248s9.961-22.248,22.248-22.248c12.227,0,22.142,9.866,22.239,22.07V159.894z M196.111,157.846
			c-0.003,3.128-2.459,5.711-5.575,5.983l-57.405,5.02c0,0,6.683,13.613,22.029,12.376c15.346-1.237,23.761-9.9,23.761-9.9
			c1.848,1.389,8.532,12.083,9.44,15.13c-8.671,14.635-23.774,24.335-40.969,24.335c-26.907,0-48.719-23.729-48.719-53
			s21.812-53,48.719-53s48.72,23.729,48.72,53C196.111,157.809,196.111,157.828,196.111,157.846z"/>
	</g>
</g>
</svg>
