<svg width="20" height="20" viewBox="0 0 20 20" fill="none" xmlns="http://www.w3.org/2000/svg">
<path fill-rule="evenodd" clip-rule="evenodd" d="M15.5 16.665C16.1435 16.665 16.665 16.1434 16.665 15.5V10C16.665 9.53884 17.0389 9.165 17.5 9.165C17.9612 9.165 18.335 9.53884 18.335 10V15.5C18.335 17.0657 17.0658 18.335 15.5 18.335H4.50004C2.93431 18.335 1.66504 17.0657 1.66504 15.5V10C1.66504 9.53884 2.03888 9.165 2.50004 9.165C2.9612 9.165 3.33504 9.53884 3.33504 10V15.5C3.33504 16.1434 3.85663 16.665 4.50004 16.665H15.5ZM10 14.1683C9.53888 14.1683 9.16504 13.7945 9.16504 13.3333V4.51587L7.25714 6.42377C6.93105 6.74986 6.40236 6.74986 6.07627 6.42377C5.75018 6.09768 5.75018 5.56899 6.07627 5.2429L9.40961 1.90957C9.73569 1.58348 10.2644 1.58348 10.5905 1.90957L13.9238 5.2429C14.2499 5.56899 14.2499 6.09768 13.9238 6.42377C13.5977 6.74986 13.069 6.74986 12.7429 6.42377L10.835 4.51587V13.3333C10.835 13.7945 10.4612 14.1683 10 14.1683Z" fill="#0283C5"/>
</svg>
