<svg width="33" height="32" viewBox="0 0 33 32" fill="none" xmlns="http://www.w3.org/2000/svg">
<path fill-rule="evenodd" clip-rule="evenodd" d="M16.6664 1.33203C17.1487 1.33203 17.5935 1.59217 17.8299 2.01253L23.8299 12.6792C24.0625 13.0926 24.0582 13.5983 23.8188 14.0077C23.5793 14.4171 23.1407 14.6687 22.6664 14.6687H10.6664C10.1921 14.6687 9.75343 14.4171 9.514 14.0077C9.27456 13.5983 9.27031 13.0926 9.50283 12.6792L15.5028 2.01253C15.7393 1.59217 16.1841 1.33203 16.6664 1.33203ZM12.949 11.9987H20.3837L16.6664 5.39007L12.949 11.9987ZM8.66638 20.002C6.45816 20.002 4.66805 21.7921 4.66805 24.0004C4.66805 26.2086 6.45816 27.9987 8.66638 27.9987C10.8746 27.9987 12.6647 26.2086 12.6647 24.0004C12.6647 21.7921 10.8746 20.002 8.66638 20.002ZM1.99805 24.0004C1.99805 20.3175 4.98356 17.332 8.66638 17.332C12.3492 17.332 15.3347 20.3175 15.3347 24.0004C15.3347 27.6832 12.3492 30.6687 8.66638 30.6687C4.98356 30.6687 1.99805 27.6832 1.99805 24.0004ZM17.998 18.667C17.998 17.9297 18.5957 17.332 19.333 17.332H29.9997C30.737 17.332 31.3347 17.9297 31.3347 18.667V29.3337C31.3347 30.071 30.737 30.6687 29.9997 30.6687H19.333C18.5957 30.6687 17.998 30.071 17.998 29.3337V18.667ZM20.668 20.002V27.9987H28.6647V20.002H20.668Z" fill="#069CDF"/>
</svg>
