<svg width="32" height="32" viewBox="0 0 32 32" fill="none" xmlns="http://www.w3.org/2000/svg">
<path fill-rule="evenodd" clip-rule="evenodd" d="M1.33154 2.66703C1.33154 1.92973 1.92924 1.33203 2.66654 1.33203H13.3332C14.0705 1.33203 14.6682 1.92973 14.6682 2.66703V13.3337C14.6682 14.071 14.0705 14.6687 13.3332 14.6687H2.66654C1.92924 14.6687 1.33154 14.071 1.33154 13.3337V2.66703ZM4.00154 4.00203V11.9987H11.9982V4.00203H4.00154ZM23.9999 1.33203C24.5055 1.33203 24.9678 1.61772 25.1939 2.07L30.5273 12.7367C30.7342 13.1505 30.7121 13.642 30.4688 14.0355C30.2256 14.4291 29.7959 14.6687 29.3332 14.6687H18.6665C18.2039 14.6687 17.7742 14.4291 17.5309 14.0355C17.2877 13.642 17.2656 13.1505 17.4725 12.7367L22.8058 2.07C23.032 1.61772 23.4942 1.33203 23.9999 1.33203ZM20.8266 11.9987H27.1731L23.9999 5.65218L20.8266 11.9987ZM7.99988 20.002C5.79166 20.002 4.00154 21.7921 4.00154 24.0004C4.00154 26.2086 5.79166 27.9987 7.99988 27.9987C10.2081 27.9987 11.9982 26.2086 11.9982 24.0004C11.9982 21.7921 10.2081 20.002 7.99988 20.002ZM1.33154 24.0004C1.33154 20.3175 4.31706 17.332 7.99988 17.332C11.6827 17.332 14.6682 20.3175 14.6682 24.0004C14.6682 27.6832 11.6827 30.6687 7.99988 30.6687C4.31706 30.6687 1.33154 27.6832 1.33154 24.0004ZM17.3315 18.667C17.3315 17.9297 17.9292 17.332 18.6665 17.332H29.3332C30.0705 17.332 30.6682 17.9297 30.6682 18.667C30.6682 19.4043 30.0705 20.002 29.3332 20.002H18.6665C17.9292 20.002 17.3315 19.4043 17.3315 18.667ZM17.3315 24.0004C17.3315 23.2631 17.9292 22.6654 18.6665 22.6654H29.3332C30.0705 22.6654 30.6682 23.2631 30.6682 24.0004C30.6682 24.7377 30.0705 25.3354 29.3332 25.3354H18.6665C17.9292 25.3354 17.3315 24.7377 17.3315 24.0004ZM17.3315 29.3337C17.3315 28.5964 17.9292 27.9987 18.6665 27.9987H29.3332C30.0705 27.9987 30.6682 28.5964 30.6682 29.3337C30.6682 30.071 30.0705 30.6687 29.3332 30.6687H18.6665C17.9292 30.6687 17.3315 30.071 17.3315 29.3337Z" fill="#069CDF"/>
</svg>
