<svg width="33" height="32" viewBox="0 0 33 32" fill="none" xmlns="http://www.w3.org/2000/svg">
<path fill-rule="evenodd" clip-rule="evenodd" d="M19.2892 2.69614C20.0089 2.85608 20.4627 3.56921 20.3028 4.28895L14.9694 28.2889C14.8095 29.0087 14.0964 29.4625 13.3766 29.3026C12.6569 29.1426 12.2031 28.4295 12.363 27.7097L17.6963 3.70975C17.8563 2.99 18.5694 2.5362 19.2892 2.69614ZM9.27687 9.72203C9.79822 10.2434 9.79822 11.0887 9.27687 11.61L4.88753 15.9993L9.27687 20.3887C9.79822 20.91 9.79822 21.7553 9.27687 22.2767C8.75552 22.798 7.91025 22.798 7.3889 22.2767L2.05556 16.9433C1.53421 16.422 1.53421 15.5767 2.05556 15.0554L7.3889 9.72203C7.91025 9.20068 8.75552 9.20068 9.27687 9.72203ZM23.3889 9.72203C23.9102 9.20068 24.7555 9.20068 25.2769 9.72203L30.6102 15.0554C31.1316 15.5767 31.1316 16.422 30.6102 16.9433L25.2769 22.2767C24.7555 22.798 23.9102 22.798 23.3889 22.2767C22.8675 21.7553 22.8675 20.91 23.3889 20.3887L27.7782 15.9993L23.3889 11.61C22.8675 11.0887 22.8675 10.2434 23.3889 9.72203Z" fill="#069CDF"/>
</svg>
